DataRate=2000.000000
DataType=double
version=3
OpenSimVersion=4.3-2021-08-27-4bc7ad9
endheader
time	f1_1	f1_2	f1_3	p1_1	p1_2	p1_3	m1_1	m1_2	m1_3	f2_1	f2_2	f2_3	p2_1	p2_2	p2_3	m2_1	m2_2	m2_3	f3_1	f3_2	f3_3	p3_1	p3_2	p3_3	m3_1	m3_2	m3_3	f4_1	f4_2	f4_3	p4_1	p4_2	p4_3	m4_1	m4_2	m4_3
0	-0	0	0	-300	2252	0	0	0	0	-0.5096824169158936	-35.62671279907227	395.0572814941406	-300	1351	0	-102660.3828125	58491.1953125	2494.037109375	0.910273294805425	35.88167194530693	380.7576293945312	-300	450.0000000000007	0	104265.7009288216	50242.70768259854	-3351.316650390625	-0	0	0	305	450.0000000000007	0	0	0	0
0.0005	-0	0	0	-300	2252	0	0	0	0	-0.9685034155845642	-35.48670196533203	394.4005737304688	-300	1351	0	-102873.78125	58291.50390625	2489.88427734375	0.9989768647029975	35.94692997530733	381.0001220703125	-300	450.0000000000007	0	104261.0368688557	50184.73502614467	-3350.047607421875	-0	0	0	305	450.0000000000007	0	0	0	0
0.001	-0	0	0	-300	2252	0	0	0	0	-1.083360195159912	-35.34651184082031	395.6123657226562	-300	1351	0	-102519.046875	58288.78515625	2443.97607421875	1.06452784866276	35.92387776259648	379.9527587890625	-300	450.0000000000007	0	104528.6696707804	50426.66863159327	-3315.30908203125	-0	0	0	305	450.0000000000007	0	0	0	0
0.0015	-0	0	0	-300	2252	0	0	0	0	-0.8157504796981812	-35.37218475341797	395.0566711425781	-300	1351	0	-102414.3125	58374.4921875	2469.13134765625	1.087673172569022	35.78947453484843	379.4519348144531	-300	450.0000000000007	0	104179.357171717	50405.24283507434	-3341.130859375	-0	0	0	305	450.0000000000007	0	0	0	0
0.002	-0	0	0	-300	2252	0	0	0	0	-0.7771390676498413	-35.24448776245117	395.3600463867188	-300	1351	0	-102464.8359375	58430.84765625	2419.10693359375	1.083824507201979	35.6397171494263	379.7707824707031	-300	450.0000000000007	0	104154.0915572135	50165.11002146995	-3227.66748046875	-0	0	0	305	450.0000000000007	0	0	0	0
0.0025	-0	0	0	-300	2252	0	0	0	0	-1.032551884651184	-35.48678970336914	395.2579650878906	-300	1351	0	-102440.2734375	58471.17578125	2397.94384765625	0.9102370590435657	35.79331592723894	378.2982788085938	-300	450.0000000000007	0	104198.8024841072	50407.75455467432	-3371.98193359375	-0	0	0	305	450.0000000000007	0	0	0	0
0.003	-0	0	0	-300	2252	0	0	0	0	-0.8154027462005615	-35.34645080566406	395.5631713867188	-300	1351	0	-102557.5234375	58382.5703125	2406.4482421875	0.975817068616457	35.81256107781061	378.1460876464844	-300	450.0000000000007	0	104374.9352918961	50515.53190612333	-3307.5029296875	-0	0	0	305	450.0000000000007	0	0	0	0
0.0035	-0	0	0	-300	2252	0	0	0	0	-0.9942589998245239	-35.34690475463867	393.5943603515625	-300	1351	0	-102489.640625	58377.5625	2477.306884765625	0.9758170723132094	35.7279892394317	379.0876770019531	-300	450.0000000000007	0	104158.4977987639	50358.41470916255	-3388.779296875	-0	0	0	305	450.0000000000007	0	0	0	0
0.004	-0	0	0	-300	2252	0	0	0	0	-0.7520644068717957	-35.10442733764648	393.7936096191406	-300	1351	0	-102523.3203125	58414.19921875	2586.355712890625	1.114471418843916	35.83559804065849	379.1933288574219	-300	450.0000000000007	0	104184.4977965577	50408.88736654905	-3417.26416015625	-0	0	0	305	450.0000000000007	0	0	0	0
0.004500000000000001	-0	0	0	-300	2252	0	0	0	0	-0.6498813629150391	-35.32102584838867	395.7626953125	-300	1351	0	-102758.40625	58246.0703125	2502.7421875	1.346369133452614	35.7702866189103	380.1351928710938	-300	450.0000000000007	0	104290.872794586	50453.99283994884	-3396.747802734375	-0	0	0	305	450.0000000000007	0	0	0	0
0.005	-0	0	0	-300	2252	0	0	0	0	-0.6882835626602173	-35.30863952636719	395.3628540039062	-300	1351	0	-102651.765625	58484.88671875	2389.85009765625	0.9563899477686361	35.81627277740088	379.876953125	-300	450.0000000000007	0	104100.677479922	50503.50064413514	-3431.38525390625	-0	0	0	305	450.0000000000007	0	0	0	0
0.0055	-0	0	0	-300	2252	0	0	0	0	-0.6752600073814392	-35.14274978637695	393.390869140625	-300	1351	0	-102496.8515625	58249.84765625	2394.042724609375	1.060889342724256	35.92394261229096	379.3317565917969	-300	450.0000000000007	0	104304.2634208728	50424.55534053416	-3328.226318359375	-0	0	0	305	450.0000000000007	0	0	0	0
0.006	-0	0	0	-300	2252	0	0	0	0	-0.8536754250526428	-35.28261566162109	394.5508728027344	-300	1351	0	-102543.71875	58318.21484375	2439.993408203125	0.8214796544176984	35.99650195851548	378.236328125	-300	450.0000000000007	0	104488.3727997061	50336.86003608184	-3315.026611328125	-0	0	0	305	450.0000000000007	0	0	0	0
0.006500000000000001	-0	0	0	-300	2252	0	0	0	0	-0.9051324725151062	-35.34704208374023	394.7572326660156	-300	1351	0	-102624.828125	58245.87109375	2414.737548828125	0.933283651794153	36.25061039235766	379.4369506835938	-300	450.0000000000007	0	104515.0446781941	50257.06316224771	-3356.4970703125	-0	0	0	305	450.0000000000007	0	0	0	0
0.007	-0	0	0	-300	2252	0	0	0	0	-0.7644582986831665	-35.2057991027832	393.5401306152344	-300	1351	0	-102606.375	57960.61328125	2456.723388671875	1.064527852520422	35.83562474135625	379.2695007324219	-300	450.0000000000007	0	104282.1540559481	50194.05924581773	-3294.499267578125	-0	0	0	305	450.0000000000007	0	0	0	0
0.0075	-0	0	0	-300	2252	0	0	0	0	-0.9682445526123047	-35.44930267333984	395.2601013183594	-300	1351	0	-102602.453125	58096.99609375	2439.83544921875	1.087602002449463	35.83920292840001	379.25537109375	-300	450.0000000000007	0	104345.6853029028	50263.72721734477	-3445.732421875	-0	0	0	305	450.0000000000007	0	0	0	0
0.008	-0	0	0	-300	2252	0	0	0	0	-1.03287398815155	-35.06586837768555	395.0042419433594	-300	1351	0	-102367.171875	58395.2890625	2389.968994140625	1.130171636197864	35.9204216497432	378.2987670898438	-300	450.0000000000007	0	104165.9743686988	50188.32486573936	-3337.19287109375	-0	0	0	305	450.0000000000007	0	0	0	0
0.008500000000000001	-0	0	0	-300	2252	0	0	0	0	-0.8912407159805298	-35.33408737182617	396.16748046875	-300	1351	0	-102518.671875	58446.04296875	2385.490966796875	1.087587585848589	35.66251759514743	378.0543212890625	-300	450.0000000000007	0	103941.5837466956	50119.76626218094	-3395.369140625	-0	0	0	305	450.0000000000007	0	0	0	0
